<svg width="169" height="29" viewBox="0 0 169 29" fill="none" xmlns="http://www.w3.org/2000/svg">
<path fill-rule="evenodd" clip-rule="evenodd" d="M8.90393 18.6834H21.3234C30.1635 18.6834 34.5836 15.6197 34.5836 9.49238V9.1157C34.5836 3.03857 30.1635 0 21.3234 0H0.00012207V6.37927H8.90393V6.36592H21.1705C23.9219 6.36592 25.2976 7.35785 25.2976 9.34171V9.45471C25.2976 11.4135 23.9219 12.3928 21.1705 12.3928H8.90393V12.3644H0.00012207V28.0251H8.90393V18.6834ZM46.1847 28.0251V0H37.2809V28.0251H46.1847ZM73.6099 17.6168L67.5776 6.06458L61.291 17.6168C61.291 17.6168 63.6893 15.245 67.5776 15.3039C71.3861 15.3615 73.6099 17.6168 73.6099 17.6168ZM79.0417 28.0251L77.7162 26.2547C77.7162 26.2547 72.1853 20.2361 67.5776 20.3031C63.0808 20.3686 60.5125 22.7403 57.7713 26.2547C57.2572 26.9138 56.572 28.0251 56.572 28.0251H47.5153L61.8837 0H73.4243L88.6333 28.0251H79.0417ZM112.367 11.8655H98.8779V11.8535H89.9741V28.0251H98.8779V18.0807H110.495C112.66 18.0807 114.189 18.47 115.081 19.2484C115.972 20.0269 116.418 21.2825 116.418 23.0153V26.2547C116.418 27.0834 116.558 27.6736 116.838 28.0251H125.895V27.8368C125.538 27.1336 125.36 25.991 125.36 24.409V20.3031C125.36 18.6206 124.851 17.2269 123.831 16.122C122.838 15.017 121.551 14.2637 119.972 13.8619C120.532 13.6861 121.067 13.4727 121.577 13.2215C122.112 12.9453 122.672 12.5812 123.258 12.1292C123.87 11.652 124.354 11.0368 124.71 10.2834C125.067 9.50494 125.245 8.65112 125.245 7.72198V7.26996C125.245 2.42332 121.131 0 112.902 0H89.9741V6.37927H98.8779V6.36592H112.367C113.59 6.36592 114.495 6.61704 115.081 7.11929C115.666 7.62153 115.959 8.27444 115.959 9.07803V9.1157C115.959 9.9444 115.654 10.6099 115.042 11.1121C114.456 11.6144 113.565 11.8655 112.367 11.8655ZM153.977 17.6168L147.944 6.06458L141.658 17.6168C141.658 17.6168 144.056 15.245 147.944 15.3039C151.753 15.3615 153.977 17.6168 153.977 17.6168ZM159.408 28.0251L158.083 26.2547C158.083 26.2547 152.552 20.2361 147.944 20.3031C143.448 20.3686 140.879 22.7403 138.138 26.2547C137.624 26.9138 136.939 28.0251 136.939 28.0251H127.882L142.25 0H153.791L169 28.0251H159.408Z" fill="white"/>
<path d="M68.8448 15.0122C82.802 15.0122 88.0427 27.3069 88.7467 28.0249H78.8152C77.2792 25.2835 73.5609 21.6556 68.8448 21.6556C64.0805 21.6556 59.1806 25.414 57.3246 28.0249H47.5583C48.3903 27.1764 54.8876 15.0122 68.8448 15.0122Z" fill="url(#paint0_linear_1_92)"/>
<defs>
<linearGradient id="paint0_linear_1_92" x1="88.5732" y1="26.0213" x2="59.0528" y2="26.4716" gradientUnits="userSpaceOnUse">
<stop stop-color="#CF54A5"/>
<stop offset="1" stop-color="#FF0505"/>
</linearGradient>
</defs>
</svg>
